<svg width="52" height="52" viewBox="0 0 52 52" fill="none" xmlns="http://www.w3.org/2000/svg">
<g filter="url(#filter0_dii_311_4263)">
<path d="M2 11C2 5.47715 6.47715 1 12 1H40C45.5229 1 50 5.47715 50 11V39C50 44.5229 45.5228 49 40 49H12C6.47715 49 2 44.5228 2 39V11Z" fill="#FEFEFE"/>
<path d="M12 1.5H40C45.2467 1.5 49.5 5.75329 49.5 11V39C49.5 44.2467 45.2467 48.5 40 48.5H12C6.7533 48.5 2.5 44.2467 2.5 39V11C2.5 5.7533 6.75329 1.5 12 1.5Z" stroke="#E0E0E0"/>
<path d="M32 28V22C32 19.1716 32 17.7574 31.1213 16.8787C30.2426 16 28.8284 16 26 16H22C19.1716 16 17.7574 16 16.8787 16.8787C16 17.7574 16 19.1716 16 22V28C16 30.8284 16 32.2426 16.8787 33.1213C17.7574 34 19.1716 34 22 34H34" stroke="url(#paint0_linear_311_4263)" stroke-width="2" stroke-linecap="round" stroke-linejoin="round"/>
<path d="M20 21H28" stroke="url(#paint1_linear_311_4263)" stroke-width="2" stroke-linecap="round" stroke-linejoin="round"/>
<path d="M20 25H28" stroke="url(#paint2_linear_311_4263)" stroke-width="2" stroke-linecap="round" stroke-linejoin="round"/>
<path d="M20 29H24" stroke="url(#paint3_linear_311_4263)" stroke-width="2" stroke-linecap="round" stroke-linejoin="round"/>
<path d="M32 21H33C34.4142 21 35.1213 21 35.5607 21.4393C36 21.8787 36 22.5858 36 24V32C36 33.1046 35.1046 34 34 34C32.8954 34 32 33.1046 32 32V21Z" stroke="url(#paint4_linear_311_4263)" stroke-width="2" stroke-linecap="round" stroke-linejoin="round"/>
</g>
<defs>
<filter id="filter0_dii_311_4263" x="0" y="0" width="52" height="52" filterUnits="userSpaceOnUse" color-interpolation-filters="sRGB">
<feFlood flood-opacity="0" result="BackgroundImageFix"/>
<feColorMatrix in="SourceAlpha" type="matrix" values="0 0 0 0 0 0 0 0 0 0 0 0 0 0 0 0 0 0 127 0" result="hardAlpha"/>
<feOffset dy="1"/>
<feGaussianBlur stdDeviation="1"/>
<feColorMatrix type="matrix" values="0 0 0 0 0.0392157 0 0 0 0 0.0496732 0 0 0 0 0.0705882 0 0 0 0.05 0"/>
<feBlend mode="normal" in2="BackgroundImageFix" result="effect1_dropShadow_311_4263"/>
<feBlend mode="normal" in="SourceGraphic" in2="effect1_dropShadow_311_4263" result="shape"/>
<feColorMatrix in="SourceAlpha" type="matrix" values="0 0 0 0 0 0 0 0 0 0 0 0 0 0 0 0 0 0 127 0" result="hardAlpha"/>
<feOffset dy="-2"/>
<feComposite in2="hardAlpha" operator="arithmetic" k2="-1" k3="1"/>
<feColorMatrix type="matrix" values="0 0 0 0 0.0392157 0 0 0 0 0.0496732 0 0 0 0 0.0705882 0 0 0 0.05 0"/>
<feBlend mode="normal" in2="shape" result="effect2_innerShadow_311_4263"/>
<feColorMatrix in="SourceAlpha" type="matrix" values="0 0 0 0 0 0 0 0 0 0 0 0 0 0 0 0 0 0 127 0" result="hardAlpha"/>
<feMorphology radius="1" operator="erode" in="SourceAlpha" result="effect3_innerShadow_311_4263"/>
<feOffset/>
<feComposite in2="hardAlpha" operator="arithmetic" k2="-1" k3="1"/>
<feColorMatrix type="matrix" values="0 0 0 0 0.0392157 0 0 0 0 0.0496732 0 0 0 0 0.0705882 0 0 0 0.18 0"/>
<feBlend mode="normal" in2="effect2_innerShadow_311_4263" result="effect3_innerShadow_311_4263"/>
</filter>
<linearGradient id="paint0_linear_311_4263" x1="25" y1="16" x2="25" y2="34" gradientUnits="userSpaceOnUse">
<stop stop-color="#47B2B9"/>
<stop offset="1" stop-color="#70A97C"/>
</linearGradient>
<linearGradient id="paint1_linear_311_4263" x1="24" y1="21" x2="24" y2="22" gradientUnits="userSpaceOnUse">
<stop stop-color="#47B2B9"/>
<stop offset="1" stop-color="#70A97C"/>
</linearGradient>
<linearGradient id="paint2_linear_311_4263" x1="24" y1="25" x2="24" y2="26" gradientUnits="userSpaceOnUse">
<stop stop-color="#47B2B9"/>
<stop offset="1" stop-color="#70A97C"/>
</linearGradient>
<linearGradient id="paint3_linear_311_4263" x1="22" y1="29" x2="22" y2="30" gradientUnits="userSpaceOnUse">
<stop stop-color="#47B2B9"/>
<stop offset="1" stop-color="#70A97C"/>
</linearGradient>
<linearGradient id="paint4_linear_311_4263" x1="34" y1="21" x2="34" y2="34" gradientUnits="userSpaceOnUse">
<stop stop-color="#47B2B9"/>
<stop offset="1" stop-color="#70A97C"/>
</linearGradient>
</defs>
</svg>
