<svg width="52" height="52" viewBox="0 0 52 52" fill="none" xmlns="http://www.w3.org/2000/svg">
<g filter="url(#filter0_dii_311_4275)">
<path d="M2 11C2 5.47715 6.47715 1 12 1H40C45.5229 1 50 5.47715 50 11V39C50 44.5229 45.5228 49 40 49H12C6.47715 49 2 44.5228 2 39V11Z" fill="#FEFEFE"/>
<path d="M12 1.5H40C45.2467 1.5 49.5 5.75329 49.5 11V39C49.5 44.2467 45.2467 48.5 40 48.5H12C6.7533 48.5 2.5 44.2467 2.5 39V11C2.5 5.7533 6.75329 1.5 12 1.5Z" stroke="#E0E0E0"/>
<path d="M29.5 24C29.5 22.067 27.933 20.5 26 20.5C24.067 20.5 22.5 22.067 22.5 24C22.5 25.933 24.067 27.5 26 27.5C27.933 27.5 29.5 25.933 29.5 24Z" stroke="url(#paint0_linear_311_4275)" stroke-width="2" stroke-linecap="round" stroke-linejoin="round"/>
<path d="M29.4825 24.3499C29.8045 24.4475 30.146 24.5 30.4998 24.5C32.4328 24.5 33.9998 22.933 33.9998 21C33.9998 19.067 32.4328 17.5 30.4998 17.5C28.6849 17.5 27.1926 18.8814 27.0171 20.6501" stroke="url(#paint1_linear_311_4275)" stroke-width="2" stroke-linecap="round" stroke-linejoin="round"/>
<path d="M24.9827 20.6501C24.8072 18.8814 23.3149 17.5 21.5 17.5C19.567 17.5 18 19.067 18 21C18 22.933 19.567 24.5 21.5 24.5C21.8538 24.5 22.1954 24.4475 22.5173 24.3499" stroke="url(#paint2_linear_311_4275)" stroke-width="2" stroke-linecap="round" stroke-linejoin="round"/>
<path d="M36 29.5C36 26.7386 33.5376 24.5 30.5 24.5" stroke="url(#paint3_linear_311_4275)" stroke-width="2" stroke-linecap="round" stroke-linejoin="round"/>
<path d="M31.5 32.5C31.5 29.7386 29.0376 27.5 26 27.5C22.9624 27.5 20.5 29.7386 20.5 32.5" stroke="url(#paint4_linear_311_4275)" stroke-width="2" stroke-linecap="round" stroke-linejoin="round"/>
<path d="M21.5 24.5C18.4624 24.5 16 26.7386 16 29.5" stroke="url(#paint5_linear_311_4275)" stroke-width="2" stroke-linecap="round" stroke-linejoin="round"/>
</g>
<defs>
<filter id="filter0_dii_311_4275" x="0" y="0" width="52" height="52" filterUnits="userSpaceOnUse" color-interpolation-filters="sRGB">
<feFlood flood-opacity="0" result="BackgroundImageFix"/>
<feColorMatrix in="SourceAlpha" type="matrix" values="0 0 0 0 0 0 0 0 0 0 0 0 0 0 0 0 0 0 127 0" result="hardAlpha"/>
<feOffset dy="1"/>
<feGaussianBlur stdDeviation="1"/>
<feColorMatrix type="matrix" values="0 0 0 0 0.0392157 0 0 0 0 0.0496732 0 0 0 0 0.0705882 0 0 0 0.05 0"/>
<feBlend mode="normal" in2="BackgroundImageFix" result="effect1_dropShadow_311_4275"/>
<feBlend mode="normal" in="SourceGraphic" in2="effect1_dropShadow_311_4275" result="shape"/>
<feColorMatrix in="SourceAlpha" type="matrix" values="0 0 0 0 0 0 0 0 0 0 0 0 0 0 0 0 0 0 127 0" result="hardAlpha"/>
<feOffset dy="-2"/>
<feComposite in2="hardAlpha" operator="arithmetic" k2="-1" k3="1"/>
<feColorMatrix type="matrix" values="0 0 0 0 0.0392157 0 0 0 0 0.0496732 0 0 0 0 0.0705882 0 0 0 0.05 0"/>
<feBlend mode="normal" in2="shape" result="effect2_innerShadow_311_4275"/>
<feColorMatrix in="SourceAlpha" type="matrix" values="0 0 0 0 0 0 0 0 0 0 0 0 0 0 0 0 0 0 127 0" result="hardAlpha"/>
<feMorphology radius="1" operator="erode" in="SourceAlpha" result="effect3_innerShadow_311_4275"/>
<feOffset/>
<feComposite in2="hardAlpha" operator="arithmetic" k2="-1" k3="1"/>
<feColorMatrix type="matrix" values="0 0 0 0 0.0392157 0 0 0 0 0.0496732 0 0 0 0 0.0705882 0 0 0 0.18 0"/>
<feBlend mode="normal" in2="effect2_innerShadow_311_4275" result="effect3_innerShadow_311_4275"/>
</filter>
<linearGradient id="paint0_linear_311_4275" x1="26" y1="20.5" x2="26" y2="27.5" gradientUnits="userSpaceOnUse">
<stop stop-color="#47B2B9"/>
<stop offset="1" stop-color="#70A97C"/>
</linearGradient>
<linearGradient id="paint1_linear_311_4275" x1="30.5084" y1="17.5" x2="30.5084" y2="24.5" gradientUnits="userSpaceOnUse">
<stop stop-color="#47B2B9"/>
<stop offset="1" stop-color="#70A97C"/>
</linearGradient>
<linearGradient id="paint2_linear_311_4275" x1="21.4914" y1="17.5" x2="21.4914" y2="24.5" gradientUnits="userSpaceOnUse">
<stop stop-color="#47B2B9"/>
<stop offset="1" stop-color="#70A97C"/>
</linearGradient>
<linearGradient id="paint3_linear_311_4275" x1="33.25" y1="24.5" x2="33.25" y2="29.5" gradientUnits="userSpaceOnUse">
<stop stop-color="#47B2B9"/>
<stop offset="1" stop-color="#70A97C"/>
</linearGradient>
<linearGradient id="paint4_linear_311_4275" x1="26" y1="27.5" x2="26" y2="32.5" gradientUnits="userSpaceOnUse">
<stop stop-color="#47B2B9"/>
<stop offset="1" stop-color="#70A97C"/>
</linearGradient>
<linearGradient id="paint5_linear_311_4275" x1="18.75" y1="24.5" x2="18.75" y2="29.5" gradientUnits="userSpaceOnUse">
<stop stop-color="#47B2B9"/>
<stop offset="1" stop-color="#70A97C"/>
</linearGradient>
</defs>
</svg>
