<svg width="52" height="52" viewBox="0 0 52 52" fill="none" xmlns="http://www.w3.org/2000/svg">
<g filter="url(#filter0_dii_311_4323)">
<path d="M2 11C2 5.47715 6.47715 1 12 1H40C45.5229 1 50 5.47715 50 11V39C50 44.5229 45.5228 49 40 49H12C6.47715 49 2 44.5228 2 39V11Z" fill="#FEFEFE"/>
<path d="M12 1.5H40C45.2467 1.5 49.5 5.75329 49.5 11V39C49.5 44.2467 45.2467 48.5 40 48.5H12C6.7533 48.5 2.5 44.2467 2.5 39V11C2.5 5.7533 6.75329 1.5 12 1.5Z" stroke="#E0E0E0"/>
<path d="M29 20.5H23V19H29V20.5ZM26 34H18.5V31H20V29.5H18.5V25.75H20V24.25H18.5V20.5H20V19H18.5V16H32V28.75H33.5V16C33.5 15.175 32.825 14.5 32 14.5H18.5C17.675 14.5 17 15.175 17 16V19H15.5V20.5H17V24.25H15.5V25.75H17V29.5H15.5V31H17V34C17 34.825 17.675 35.5 18.5 35.5H26V34ZM29 24.25H23V25.75H29V24.25ZM31.25 33.4L29.3 31.45L28.25 32.5L31.25 35.5L36.5 30.25L35.45 29.2L31.25 33.4Z" fill="url(#paint0_linear_311_4323)"/>
</g>
<defs>
<filter id="filter0_dii_311_4323" x="0" y="0" width="52" height="52" filterUnits="userSpaceOnUse" color-interpolation-filters="sRGB">
<feFlood flood-opacity="0" result="BackgroundImageFix"/>
<feColorMatrix in="SourceAlpha" type="matrix" values="0 0 0 0 0 0 0 0 0 0 0 0 0 0 0 0 0 0 127 0" result="hardAlpha"/>
<feOffset dy="1"/>
<feGaussianBlur stdDeviation="1"/>
<feColorMatrix type="matrix" values="0 0 0 0 0.0392157 0 0 0 0 0.0496732 0 0 0 0 0.0705882 0 0 0 0.05 0"/>
<feBlend mode="normal" in2="BackgroundImageFix" result="effect1_dropShadow_311_4323"/>
<feBlend mode="normal" in="SourceGraphic" in2="effect1_dropShadow_311_4323" result="shape"/>
<feColorMatrix in="SourceAlpha" type="matrix" values="0 0 0 0 0 0 0 0 0 0 0 0 0 0 0 0 0 0 127 0" result="hardAlpha"/>
<feOffset dy="-2"/>
<feComposite in2="hardAlpha" operator="arithmetic" k2="-1" k3="1"/>
<feColorMatrix type="matrix" values="0 0 0 0 0.0392157 0 0 0 0 0.0496732 0 0 0 0 0.0705882 0 0 0 0.05 0"/>
<feBlend mode="normal" in2="shape" result="effect2_innerShadow_311_4323"/>
<feColorMatrix in="SourceAlpha" type="matrix" values="0 0 0 0 0 0 0 0 0 0 0 0 0 0 0 0 0 0 127 0" result="hardAlpha"/>
<feMorphology radius="1" operator="erode" in="SourceAlpha" result="effect3_innerShadow_311_4323"/>
<feOffset/>
<feComposite in2="hardAlpha" operator="arithmetic" k2="-1" k3="1"/>
<feColorMatrix type="matrix" values="0 0 0 0 0.0392157 0 0 0 0 0.0496732 0 0 0 0 0.0705882 0 0 0 0.18 0"/>
<feBlend mode="normal" in2="effect2_innerShadow_311_4323" result="effect3_innerShadow_311_4323"/>
</filter>
<linearGradient id="paint0_linear_311_4323" x1="26" y1="14.5" x2="26" y2="35.5" gradientUnits="userSpaceOnUse">
<stop stop-color="#47B2B9"/>
<stop offset="1" stop-color="#70A97C"/>
</linearGradient>
</defs>
</svg>
