<svg width="52" height="52" viewBox="0 0 52 52" fill="none" xmlns="http://www.w3.org/2000/svg">
<g filter="url(#filter0_dii_311_4331)">
<path d="M2 11C2 5.47715 6.47715 1 12 1H40C45.5229 1 50 5.47715 50 11V39C50 44.5229 45.5228 49 40 49H12C6.47715 49 2 44.5228 2 39V11Z" fill="#FEFEFE"/>
<path d="M12 1.5H40C45.2467 1.5 49.5 5.75329 49.5 11V39C49.5 44.2467 45.2467 48.5 40 48.5H12C6.7533 48.5 2.5 44.2467 2.5 39V11C2.5 5.7533 6.75329 1.5 12 1.5Z" stroke="#E0E0E0"/>
<path d="M20.5 31.5H31.5M20.5 28H31.5M28.684 14.54C29.1325 14.68 30.5725 15.251 32.6525 17.2795C34.6125 19.191 35.246 20.5485 35.432 21.0645C35.4735 22.185 35.5 23.49 35.5 25C35.5 29.0325 35.3125 31.602 35.1415 33.107C35.0165 34.208 34.19 35.031 33.09 35.1595C31.6825 35.324 29.3835 35.5 26 35.5C22.6165 35.5 20.3175 35.324 18.91 35.16C17.81 35.031 16.9835 34.208 16.8585 33.107C16.6875 31.602 16.5 29.032 16.5 25C16.5 20.968 16.6875 18.398 16.8585 16.893C16.9835 15.792 17.81 14.969 18.91 14.84C20.3175 14.6765 22.6165 14.5 26 14.5C26.985 14.5 27.878 14.515 28.684 14.54Z" stroke="url(#paint0_linear_311_4331)" stroke-width="1.5" stroke-linecap="round" stroke-linejoin="round"/>
<path d="M20.5 24.4341C21.786 22.4691 22.8585 21.6061 23.448 21.2441C23.7265 21.0726 24.063 21.1846 24.208 21.4781C24.5395 22.1506 24.853 23.0746 25.0765 23.8081C25.2085 24.2381 25.8365 24.3306 26.113 23.9756C27.226 22.5476 28.75 21.2501 28.75 21.2501M30.7835 22.1601C31.0035 20.9981 31.012 19.9786 30.9935 19.4386C30.9904 19.325 30.9438 19.2168 30.8635 19.1364C30.7832 19.056 30.6751 19.0094 30.5615 19.0061C29.6493 18.9785 28.7367 19.0489 27.8395 19.2161C27.4625 19.2876 27.3375 19.7471 27.6095 20.0186L29.9815 22.3911C30.253 22.6626 30.712 22.5371 30.7835 22.1601Z" stroke="url(#paint1_linear_311_4331)" stroke-width="1.5" stroke-linecap="round" stroke-linejoin="round"/>
</g>
<defs>
<filter id="filter0_dii_311_4331" x="0" y="0" width="52" height="52" filterUnits="userSpaceOnUse" color-interpolation-filters="sRGB">
<feFlood flood-opacity="0" result="BackgroundImageFix"/>
<feColorMatrix in="SourceAlpha" type="matrix" values="0 0 0 0 0 0 0 0 0 0 0 0 0 0 0 0 0 0 127 0" result="hardAlpha"/>
<feOffset dy="1"/>
<feGaussianBlur stdDeviation="1"/>
<feColorMatrix type="matrix" values="0 0 0 0 0.0392157 0 0 0 0 0.0496732 0 0 0 0 0.0705882 0 0 0 0.05 0"/>
<feBlend mode="normal" in2="BackgroundImageFix" result="effect1_dropShadow_311_4331"/>
<feBlend mode="normal" in="SourceGraphic" in2="effect1_dropShadow_311_4331" result="shape"/>
<feColorMatrix in="SourceAlpha" type="matrix" values="0 0 0 0 0 0 0 0 0 0 0 0 0 0 0 0 0 0 127 0" result="hardAlpha"/>
<feOffset dy="-2"/>
<feComposite in2="hardAlpha" operator="arithmetic" k2="-1" k3="1"/>
<feColorMatrix type="matrix" values="0 0 0 0 0.0392157 0 0 0 0 0.0496732 0 0 0 0 0.0705882 0 0 0 0.05 0"/>
<feBlend mode="normal" in2="shape" result="effect2_innerShadow_311_4331"/>
<feColorMatrix in="SourceAlpha" type="matrix" values="0 0 0 0 0 0 0 0 0 0 0 0 0 0 0 0 0 0 127 0" result="hardAlpha"/>
<feMorphology radius="1" operator="erode" in="SourceAlpha" result="effect3_innerShadow_311_4331"/>
<feOffset/>
<feComposite in2="hardAlpha" operator="arithmetic" k2="-1" k3="1"/>
<feColorMatrix type="matrix" values="0 0 0 0 0.0392157 0 0 0 0 0.0496732 0 0 0 0 0.0705882 0 0 0 0.18 0"/>
<feBlend mode="normal" in2="effect2_innerShadow_311_4331" result="effect3_innerShadow_311_4331"/>
</filter>
<linearGradient id="paint0_linear_311_4331" x1="26" y1="14.5" x2="26" y2="35.5" gradientUnits="userSpaceOnUse">
<stop stop-color="#47B2B9"/>
<stop offset="1" stop-color="#70A97C"/>
</linearGradient>
<linearGradient id="paint1_linear_311_4331" x1="25.7499" y1="19.0002" x2="25.7499" y2="24.4341" gradientUnits="userSpaceOnUse">
<stop stop-color="#47B2B9"/>
<stop offset="1" stop-color="#70A97C"/>
</linearGradient>
</defs>
</svg>
