<svg width="52" height="52" viewBox="0 0 52 52" fill="none" xmlns="http://www.w3.org/2000/svg">
<g filter="url(#filter0_dii_311_4220)">
<path d="M2 11C2 5.47715 6.47715 1 12 1H40C45.5229 1 50 5.47715 50 11V39C50 44.5229 45.5228 49 40 49H12C6.47715 49 2 44.5228 2 39V11Z" fill="#FEFEFE"/>
<path d="M12 1.5H40C45.2467 1.5 49.5 5.75329 49.5 11V39C49.5 44.2467 45.2467 48.5 40 48.5H12C6.7533 48.5 2.5 44.2467 2.5 39V11C2.5 5.7533 6.75329 1.5 12 1.5Z" stroke="#E0E0E0"/>
<path d="M26 18V21" stroke="url(#paint0_linear_311_4220)" stroke-width="2" stroke-linecap="round" stroke-linejoin="round"/>
<path d="M25 21H27C29.8284 21 31.2426 21 32.1213 21.8787C33 22.7574 33 24.1716 33 27C33 29.8284 33 31.2426 32.1213 32.1213C31.2426 33 29.8284 33 27 33H26C26 33 25.5 35 22 35C22 35 23 33.9913 23 32.9827C21.4466 32.9359 20.52 32.7626 19.8787 32.1213C19 31.2426 19 29.8284 19 27C19 24.1716 19 22.7574 19.8787 21.8787C20.7574 21 22.1716 21 25 21Z" stroke="url(#paint1_linear_311_4220)" stroke-width="2" stroke-linejoin="round"/>
<path d="M33 24.5H33.5C34.4346 24.5 34.9019 24.5 35.25 24.701C35.478 24.8326 35.6674 25.022 35.799 25.25C36 25.5981 36 26.0654 36 27C36 27.9346 36 28.4019 35.799 28.75C35.6674 28.978 35.478 29.1674 35.25 29.299C34.9019 29.5 34.4346 29.5 33.5 29.5H33" stroke="url(#paint2_linear_311_4220)" stroke-width="2" stroke-linejoin="round"/>
<path d="M19 24.5H18.5C17.5654 24.5 17.0981 24.5 16.75 24.701C16.522 24.8326 16.3326 25.022 16.201 25.25C16 25.5981 16 26.0654 16 27C16 27.9346 16 28.4019 16.201 28.75C16.3326 28.978 16.522 29.1674 16.75 29.299C17.0981 29.5 17.5654 29.5 18.5 29.5H19" stroke="url(#paint3_linear_311_4220)" stroke-width="2" stroke-linejoin="round"/>
<path d="M27.5 16.5C27.5 17.3284 26.8284 18 26 18C25.1716 18 24.5 17.3284 24.5 16.5C24.5 15.6716 25.1716 15 26 15C26.8284 15 27.5 15.6716 27.5 16.5Z" stroke="url(#paint4_linear_311_4220)" stroke-width="2"/>
<path d="M23 25V26M29 25V26" stroke="url(#paint5_linear_311_4220)" stroke-width="2" stroke-linecap="round" stroke-linejoin="round"/>
<path d="M24 29.5C24 29.5 24.6667 30 26 30C27.3333 30 28 29.5 28 29.5" stroke="url(#paint6_linear_311_4220)" stroke-width="2" stroke-linecap="round"/>
</g>
<defs>
<filter id="filter0_dii_311_4220" x="0" y="0" width="52" height="52" filterUnits="userSpaceOnUse" color-interpolation-filters="sRGB">
<feFlood flood-opacity="0" result="BackgroundImageFix"/>
<feColorMatrix in="SourceAlpha" type="matrix" values="0 0 0 0 0 0 0 0 0 0 0 0 0 0 0 0 0 0 127 0" result="hardAlpha"/>
<feOffset dy="1"/>
<feGaussianBlur stdDeviation="1"/>
<feColorMatrix type="matrix" values="0 0 0 0 0.0392157 0 0 0 0 0.0496732 0 0 0 0 0.0705882 0 0 0 0.05 0"/>
<feBlend mode="normal" in2="BackgroundImageFix" result="effect1_dropShadow_311_4220"/>
<feBlend mode="normal" in="SourceGraphic" in2="effect1_dropShadow_311_4220" result="shape"/>
<feColorMatrix in="SourceAlpha" type="matrix" values="0 0 0 0 0 0 0 0 0 0 0 0 0 0 0 0 0 0 127 0" result="hardAlpha"/>
<feOffset dy="-2"/>
<feComposite in2="hardAlpha" operator="arithmetic" k2="-1" k3="1"/>
<feColorMatrix type="matrix" values="0 0 0 0 0.0392157 0 0 0 0 0.0496732 0 0 0 0 0.0705882 0 0 0 0.05 0"/>
<feBlend mode="normal" in2="shape" result="effect2_innerShadow_311_4220"/>
<feColorMatrix in="SourceAlpha" type="matrix" values="0 0 0 0 0 0 0 0 0 0 0 0 0 0 0 0 0 0 127 0" result="hardAlpha"/>
<feMorphology radius="1" operator="erode" in="SourceAlpha" result="effect3_innerShadow_311_4220"/>
<feOffset/>
<feComposite in2="hardAlpha" operator="arithmetic" k2="-1" k3="1"/>
<feColorMatrix type="matrix" values="0 0 0 0 0.0392157 0 0 0 0 0.0496732 0 0 0 0 0.0705882 0 0 0 0.18 0"/>
<feBlend mode="normal" in2="effect2_innerShadow_311_4220" result="effect3_innerShadow_311_4220"/>
</filter>
<linearGradient id="paint0_linear_311_4220" x1="26.5" y1="18" x2="26.5" y2="21" gradientUnits="userSpaceOnUse">
<stop stop-color="#47B2B9"/>
<stop offset="1" stop-color="#70A97C"/>
</linearGradient>
<linearGradient id="paint1_linear_311_4220" x1="26" y1="21" x2="26" y2="35" gradientUnits="userSpaceOnUse">
<stop stop-color="#47B2B9"/>
<stop offset="1" stop-color="#70A97C"/>
</linearGradient>
<linearGradient id="paint2_linear_311_4220" x1="34.5" y1="24.5" x2="34.5" y2="29.5" gradientUnits="userSpaceOnUse">
<stop stop-color="#47B2B9"/>
<stop offset="1" stop-color="#70A97C"/>
</linearGradient>
<linearGradient id="paint3_linear_311_4220" x1="17.5" y1="24.5" x2="17.5" y2="29.5" gradientUnits="userSpaceOnUse">
<stop stop-color="#47B2B9"/>
<stop offset="1" stop-color="#70A97C"/>
</linearGradient>
<linearGradient id="paint4_linear_311_4220" x1="26" y1="15" x2="26" y2="18" gradientUnits="userSpaceOnUse">
<stop stop-color="#47B2B9"/>
<stop offset="1" stop-color="#70A97C"/>
</linearGradient>
<linearGradient id="paint5_linear_311_4220" x1="26" y1="25" x2="26" y2="26" gradientUnits="userSpaceOnUse">
<stop stop-color="#47B2B9"/>
<stop offset="1" stop-color="#70A97C"/>
</linearGradient>
<linearGradient id="paint6_linear_311_4220" x1="26" y1="29.5" x2="26" y2="30" gradientUnits="userSpaceOnUse">
<stop stop-color="#47B2B9"/>
<stop offset="1" stop-color="#70A97C"/>
</linearGradient>
</defs>
</svg>
