<svg width="52" height="52" viewBox="0 0 52 52" fill="none" xmlns="http://www.w3.org/2000/svg">
<g filter="url(#filter0_dii_311_4307)">
<path d="M2 11C2 5.47715 6.47715 1 12 1H40C45.5229 1 50 5.47715 50 11V39C50 44.5229 45.5228 49 40 49H12C6.47715 49 2 44.5228 2 39V11Z" fill="#FEFEFE"/>
<path d="M12 1.5H40C45.2467 1.5 49.5 5.75329 49.5 11V39C49.5 44.2467 45.2467 48.5 40 48.5H12C6.7533 48.5 2.5 44.2467 2.5 39V11C2.5 5.7533 6.75329 1.5 12 1.5Z" stroke="#E0E0E0"/>
<path d="M26.0001 30.4C25.3967 30.4001 24.8155 30.1729 24.372 29.7638C23.9286 29.3546 23.6556 28.7934 23.6073 28.192C22.0067 27.6254 20.6578 26.5116 19.7985 25.0472C18.9393 23.5828 18.625 21.8619 18.9112 20.1883C19.1975 18.5147 20.0657 16.996 21.3627 15.9003C22.6598 14.8047 24.3022 14.2024 26.0001 14.2C27.806 14.1997 29.546 14.8781 30.8752 16.1005C32.2044 17.323 33.0256 19.0004 33.1761 20.8C33.1811 20.878 33.1698 20.9563 33.143 21.0297C33.1161 21.1032 33.0743 21.1703 33.0201 21.2267C32.966 21.2831 32.9006 21.3277 32.8283 21.3575C32.756 21.3873 32.6783 21.4018 32.6001 21.4C32.4394 21.3959 32.2859 21.3323 32.1694 21.2214C32.053 21.1105 31.982 20.9603 31.9701 20.8C31.8632 19.739 31.4755 18.7256 30.8469 17.8642C30.2182 17.0029 29.3714 16.3246 28.3935 15.8993C27.4157 15.4739 26.3421 15.3169 25.2834 15.4443C24.2247 15.5717 23.219 15.979 22.37 16.6242C21.521 17.2694 20.8592 18.1292 20.4529 19.1152C20.0466 20.1011 19.9104 21.1775 20.0583 22.2335C20.2062 23.2896 20.6329 24.2872 21.2945 25.1235C21.956 25.9599 22.8285 26.6048 23.8221 26.992C24.0029 26.6013 24.2854 26.2665 24.6401 26.0225C24.9948 25.7786 25.4085 25.6345 25.838 25.6054C26.2675 25.5764 26.6969 25.6633 27.0812 25.8572C27.4655 26.0511 27.7906 26.3448 28.0224 26.7075C28.2543 27.0703 28.3842 27.4886 28.3988 27.9189C28.4133 28.3491 28.3119 28.7753 28.1051 29.1528C27.8983 29.5304 27.5938 29.8454 27.2235 30.0648C26.8531 30.2842 26.4306 30.4 26.0001 30.4ZM20.0109 27.4H20.1201C20.5881 27.8572 21.1077 28.2604 21.6705 28.6H20.0109C19.3377 28.6 18.8001 29.1364 18.8001 29.8C18.8001 31.3708 19.5465 32.5408 20.8077 33.3436C22.0917 34.1632 23.9181 34.6 26.0001 34.6C28.0821 34.6 29.9085 34.1632 31.1925 33.3436C32.4525 32.5396 33.2001 31.372 33.2001 29.8C33.2001 29.4817 33.0737 29.1765 32.8486 28.9514C32.6236 28.7264 32.3184 28.6 32.0001 28.6H29.5509C29.618 28.2028 29.618 27.7971 29.5509 27.4H32.0001C32.6366 27.4 33.2471 27.6528 33.6972 28.1029C34.1472 28.553 34.4001 29.1634 34.4001 29.8C34.4001 31.8292 33.4005 33.3592 31.8381 34.3564C30.2997 35.3368 28.2261 35.8 26.0001 35.8C23.7741 35.8 21.7005 35.3368 20.1621 34.3564C18.5997 33.3604 17.6001 31.828 17.6001 29.8C17.6001 28.4644 18.6837 27.4 20.0109 27.4ZM30.8001 21.4C30.8004 22.2119 30.5946 23.0107 30.2022 23.7215C29.8097 24.4323 29.2434 25.032 28.5561 25.4644C28.2357 25.1413 27.8571 24.8819 27.4401 24.7C28.1981 24.3691 28.8191 23.7874 29.1986 23.0525C29.5782 22.3177 29.6931 21.4746 29.5242 20.665C29.3552 19.8554 28.9126 19.1286 28.2708 18.6069C27.629 18.0853 26.8272 17.8005 26.0001 17.8005C25.173 17.8005 24.3712 18.0853 23.7294 18.6069C23.0876 19.1286 22.645 19.8554 22.476 20.665C22.3071 21.4746 22.422 22.3177 22.8015 23.0525C23.1811 23.7874 23.8021 24.3691 24.5601 24.7C24.1401 24.8836 23.7621 25.144 23.4441 25.4644C22.5326 24.8911 21.8403 24.0281 21.4785 23.014C21.2939 22.4959 21.1997 21.9499 21.2001 21.4C21.2001 20.1269 21.7058 18.906 22.606 18.0058C23.5062 17.1057 24.7271 16.6 26.0001 16.6C27.2731 16.6 28.494 17.1057 29.3942 18.0058C30.2944 18.906 30.8001 20.1269 30.8001 21.4Z" fill="url(#paint0_linear_311_4307)"/>
</g>
<defs>
<filter id="filter0_dii_311_4307" x="0" y="0" width="52" height="52" filterUnits="userSpaceOnUse" color-interpolation-filters="sRGB">
<feFlood flood-opacity="0" result="BackgroundImageFix"/>
<feColorMatrix in="SourceAlpha" type="matrix" values="0 0 0 0 0 0 0 0 0 0 0 0 0 0 0 0 0 0 127 0" result="hardAlpha"/>
<feOffset dy="1"/>
<feGaussianBlur stdDeviation="1"/>
<feColorMatrix type="matrix" values="0 0 0 0 0.0392157 0 0 0 0 0.0496732 0 0 0 0 0.0705882 0 0 0 0.05 0"/>
<feBlend mode="normal" in2="BackgroundImageFix" result="effect1_dropShadow_311_4307"/>
<feBlend mode="normal" in="SourceGraphic" in2="effect1_dropShadow_311_4307" result="shape"/>
<feColorMatrix in="SourceAlpha" type="matrix" values="0 0 0 0 0 0 0 0 0 0 0 0 0 0 0 0 0 0 127 0" result="hardAlpha"/>
<feOffset dy="-2"/>
<feComposite in2="hardAlpha" operator="arithmetic" k2="-1" k3="1"/>
<feColorMatrix type="matrix" values="0 0 0 0 0.0392157 0 0 0 0 0.0496732 0 0 0 0 0.0705882 0 0 0 0.05 0"/>
<feBlend mode="normal" in2="shape" result="effect2_innerShadow_311_4307"/>
<feColorMatrix in="SourceAlpha" type="matrix" values="0 0 0 0 0 0 0 0 0 0 0 0 0 0 0 0 0 0 127 0" result="hardAlpha"/>
<feMorphology radius="1" operator="erode" in="SourceAlpha" result="effect3_innerShadow_311_4307"/>
<feOffset/>
<feComposite in2="hardAlpha" operator="arithmetic" k2="-1" k3="1"/>
<feColorMatrix type="matrix" values="0 0 0 0 0.0392157 0 0 0 0 0.0496732 0 0 0 0 0.0705882 0 0 0 0.18 0"/>
<feBlend mode="normal" in2="effect2_innerShadow_311_4307" result="effect3_innerShadow_311_4307"/>
</filter>
<linearGradient id="paint0_linear_311_4307" x1="26.0001" y1="14.2" x2="26.0001" y2="35.8" gradientUnits="userSpaceOnUse">
<stop stop-color="#47B2B9"/>
<stop offset="1" stop-color="#70A97C"/>
</linearGradient>
</defs>
</svg>
