<svg width="52" height="52" viewBox="0 0 52 52" fill="none" xmlns="http://www.w3.org/2000/svg">
<g filter="url(#filter0_dii_311_4315)">
<path d="M2 11C2 5.47715 6.47715 1 12 1H40C45.5229 1 50 5.47715 50 11V39C50 44.5229 45.5228 49 40 49H12C6.47715 49 2 44.5228 2 39V11Z" fill="#FEFEFE"/>
<path d="M12 1.5H40C45.2467 1.5 49.5 5.75329 49.5 11V39C49.5 44.2467 45.2467 48.5 40 48.5H12C6.7533 48.5 2.5 44.2467 2.5 39V11C2.5 5.7533 6.75329 1.5 12 1.5Z" stroke="#E0E0E0"/>
<path d="M33.1999 17.7904C33.2 18.1723 33.109 18.5487 32.9344 18.8883C32.7598 19.228 32.5066 19.521 32.196 19.7432C31.8854 19.9653 31.5262 20.1102 31.1483 20.1656C30.7705 20.221 30.3849 20.1855 30.0235 20.062L28.4827 22.3936C29.1679 23.0464 29.5963 23.9668 29.5999 24.988L31.0039 25.2304C31.2396 24.6959 31.6622 24.2658 32.1924 24.0206C32.7226 23.7754 33.324 23.732 33.8839 23.8985C34.4438 24.065 34.9237 24.43 35.2338 24.925C35.5438 25.4201 35.6627 26.0112 35.5681 26.5877C35.4735 27.1641 35.1719 27.6862 34.7199 28.0562C34.2678 28.4262 33.6964 28.6186 33.1126 28.5974C32.5289 28.5762 31.9729 28.3428 31.5489 27.941C31.1249 27.5392 30.862 26.9965 30.8095 26.4148L29.4055 26.1712C29.1097 27.0328 28.4982 27.7502 27.6943 28.1788L28.2271 29.8072C28.2847 29.8024 28.3423 29.8 28.3999 29.8C28.9766 29.8002 29.5339 30.008 29.9699 30.3855C30.4059 30.7629 30.6915 31.2847 30.7743 31.8554C30.857 32.4262 30.7316 33.0076 30.4208 33.4934C30.11 33.9792 29.6347 34.3368 29.0818 34.5008C28.5289 34.6649 27.9355 34.6244 27.41 34.3867C26.8846 34.149 26.4623 33.7301 26.2204 33.2066C25.9785 32.6831 25.9333 32.09 26.0928 31.5358C26.2524 30.9816 26.6062 30.5035 27.0895 30.1888L26.5555 28.5568C25.9062 28.658 25.2415 28.5796 24.6335 28.33C24.0256 28.0804 23.4976 27.6691 23.1067 27.1408L21.1447 28.0864C21.1815 28.252 21.1999 28.4232 21.1999 28.6C21.2001 29.1619 21.0031 29.706 20.6433 30.1376C20.2834 30.5692 19.7836 30.8608 19.2308 30.9617C18.6781 31.0626 18.1074 30.9663 17.6183 30.6897C17.1293 30.4131 16.7527 29.9736 16.5544 29.4479C16.3561 28.9221 16.3485 28.3435 16.5329 27.8127C16.7174 27.282 17.0823 26.8328 17.5639 26.5434C18.0456 26.2541 18.6135 26.1429 19.1687 26.2292C19.724 26.3156 20.2313 26.594 20.6023 27.016L22.5619 26.0716C22.376 25.4747 22.3487 24.8397 22.4827 24.2291C22.6168 23.6185 22.9075 23.0533 23.3263 22.5892L22.2043 21.1804C21.6737 21.4246 21.0722 21.467 20.5126 21.2995C19.953 21.132 19.4736 20.7662 19.1645 20.2706C18.8553 19.775 18.7375 19.1836 18.8331 18.6074C18.9287 18.0311 19.2312 17.5095 19.6839 17.1403C20.1366 16.7712 20.7084 16.5798 21.2922 16.602C21.8759 16.6243 22.4314 16.8587 22.8547 17.2612C23.278 17.6638 23.5399 18.2069 23.5914 18.7888C23.6428 19.3707 23.4803 19.9513 23.1343 20.422L24.2671 21.844C24.7807 21.562 25.3711 21.4 25.9999 21.4C26.5303 21.4 27.0343 21.514 27.4879 21.7204L29.0215 19.4008C28.7598 19.112 28.5723 18.7638 28.4754 18.3863C28.3784 18.0088 28.3748 17.6134 28.4649 17.2342C28.5551 16.855 28.7362 16.5035 28.9926 16.21C29.2491 15.9165 29.5731 15.6899 29.9368 15.5497C30.3005 15.4096 30.6928 15.3601 31.0799 15.4055C31.467 15.451 31.8372 15.5901 32.1584 15.8107C32.4797 16.0313 32.7425 16.3268 32.9239 16.6718C33.1054 17.0167 33.2001 17.4006 33.1999 17.7904ZM31.9999 17.7904C31.9999 17.4721 31.8735 17.1669 31.6484 16.9418C31.4234 16.7168 31.1182 16.5904 30.7999 16.5904C30.4816 16.5904 30.1764 16.7168 29.9514 16.9418C29.7263 17.1669 29.5999 17.4721 29.5999 17.7904C29.5999 18.1086 29.7263 18.4139 29.9514 18.6389C30.1764 18.8639 30.4816 18.9904 30.7999 18.9904C31.1182 18.9904 31.4234 18.8639 31.6484 18.6389C31.8735 18.4139 31.9999 18.1086 31.9999 17.7904ZM21.1999 20.2012C21.5182 20.2012 21.8234 20.0747 22.0484 19.8497C22.2735 19.6247 22.3999 19.3194 22.3999 19.0012C22.3999 18.6829 22.2735 18.3777 22.0484 18.1526C21.8234 17.9276 21.5182 17.8012 21.1999 17.8012C20.8816 17.8012 20.5764 17.9276 20.3514 18.1526C20.1263 18.3777 19.9999 18.6829 19.9999 19.0012C19.9999 19.3194 20.1263 19.6247 20.3514 19.8497C20.5764 20.0747 20.8816 20.2012 21.1999 20.2012ZM25.9999 27.4012C26.6364 27.4012 27.2469 27.1483 27.697 26.6982C28.147 26.2481 28.3999 25.6377 28.3999 25.0012C28.3999 24.3647 28.147 23.7542 27.697 23.3041C27.2469 22.854 26.6364 22.6012 25.9999 22.6012C25.3634 22.6012 24.7529 22.854 24.3028 23.3041C23.8528 23.7542 23.5999 24.3647 23.5999 25.0012C23.5999 25.6377 23.8528 26.2481 24.3028 26.6982C24.7529 27.1483 25.3634 27.4012 25.9999 27.4012ZM19.9999 28.6012C19.9999 28.2829 19.8735 27.9777 19.6484 27.7526C19.4234 27.5276 19.1182 27.4012 18.7999 27.4012C18.4816 27.4012 18.1764 27.5276 17.9514 27.7526C17.7263 27.9777 17.5999 28.2829 17.5999 28.6012C17.5999 28.9194 17.7263 29.2247 17.9514 29.4497C18.1764 29.6747 18.4816 29.8012 18.7999 29.8012C19.1182 29.8012 19.4234 29.6747 19.6484 29.4497C19.8735 29.2247 19.9999 28.9194 19.9999 28.6012ZM29.5999 32.2012C29.5999 31.8829 29.4735 31.5777 29.2484 31.3526C29.0234 31.1276 28.7182 31.0012 28.3999 31.0012C28.0816 31.0012 27.7764 31.1276 27.5514 31.3526C27.3263 31.5777 27.1999 31.8829 27.1999 32.2012C27.1999 32.5194 27.3263 32.8247 27.5514 33.0497C27.7764 33.2747 28.0816 33.4012 28.3999 33.4012C28.7182 33.4012 29.0234 33.2747 29.2484 33.0497C29.4735 32.8247 29.5999 32.5194 29.5999 32.2012ZM33.1999 27.4012C33.5182 27.4012 33.8234 27.2747 34.0484 27.0497C34.2735 26.8247 34.3999 26.5194 34.3999 26.2012C34.3999 25.8829 34.2735 25.5777 34.0484 25.3526C33.8234 25.1276 33.5182 25.0012 33.1999 25.0012C32.8816 25.0012 32.5764 25.1276 32.3514 25.3526C32.1263 25.5777 31.9999 25.8829 31.9999 26.2012C31.9999 26.5194 32.1263 26.8247 32.3514 27.0497C32.5764 27.2747 32.8816 27.4012 33.1999 27.4012Z" fill="url(#paint0_linear_311_4315)"/>
</g>
<defs>
<filter id="filter0_dii_311_4315" x="0" y="0" width="52" height="52" filterUnits="userSpaceOnUse" color-interpolation-filters="sRGB">
<feFlood flood-opacity="0" result="BackgroundImageFix"/>
<feColorMatrix in="SourceAlpha" type="matrix" values="0 0 0 0 0 0 0 0 0 0 0 0 0 0 0 0 0 0 127 0" result="hardAlpha"/>
<feOffset dy="1"/>
<feGaussianBlur stdDeviation="1"/>
<feColorMatrix type="matrix" values="0 0 0 0 0.0392157 0 0 0 0 0.0496732 0 0 0 0 0.0705882 0 0 0 0.05 0"/>
<feBlend mode="normal" in2="BackgroundImageFix" result="effect1_dropShadow_311_4315"/>
<feBlend mode="normal" in="SourceGraphic" in2="effect1_dropShadow_311_4315" result="shape"/>
<feColorMatrix in="SourceAlpha" type="matrix" values="0 0 0 0 0 0 0 0 0 0 0 0 0 0 0 0 0 0 127 0" result="hardAlpha"/>
<feOffset dy="-2"/>
<feComposite in2="hardAlpha" operator="arithmetic" k2="-1" k3="1"/>
<feColorMatrix type="matrix" values="0 0 0 0 0.0392157 0 0 0 0 0.0496732 0 0 0 0 0.0705882 0 0 0 0.05 0"/>
<feBlend mode="normal" in2="shape" result="effect2_innerShadow_311_4315"/>
<feColorMatrix in="SourceAlpha" type="matrix" values="0 0 0 0 0 0 0 0 0 0 0 0 0 0 0 0 0 0 127 0" result="hardAlpha"/>
<feMorphology radius="1" operator="erode" in="SourceAlpha" result="effect3_innerShadow_311_4315"/>
<feOffset/>
<feComposite in2="hardAlpha" operator="arithmetic" k2="-1" k3="1"/>
<feColorMatrix type="matrix" values="0 0 0 0 0.0392157 0 0 0 0 0.0496732 0 0 0 0 0.0705882 0 0 0 0.18 0"/>
<feBlend mode="normal" in2="effect2_innerShadow_311_4315" result="effect3_innerShadow_311_4315"/>
</filter>
<linearGradient id="paint0_linear_311_4315" x1="25.9998" y1="15.3892" x2="25.9998" y2="34.6" gradientUnits="userSpaceOnUse">
<stop stop-color="#47B2B9"/>
<stop offset="1" stop-color="#70A97C"/>
</linearGradient>
</defs>
</svg>
