<svg width="52" height="52" viewBox="0 0 52 52" fill="none" xmlns="http://www.w3.org/2000/svg">
<g filter="url(#filter0_dii_311_4351)">
<path d="M2 11C2 5.47715 6.47715 1 12 1H40C45.5229 1 50 5.47715 50 11V39C50 44.5229 45.5228 49 40 49H12C6.47715 49 2 44.5228 2 39V11Z" fill="#FEFEFE"/>
<path d="M12 1.5H40C45.2467 1.5 49.5 5.75329 49.5 11V39C49.5 44.2467 45.2467 48.5 40 48.5H12C6.7533 48.5 2.5 44.2467 2.5 39V11C2.5 5.7533 6.75329 1.5 12 1.5Z" stroke="#E0E0E0"/>
<path d="M20.5117 35.5637C19.8561 35.5646 19.2068 35.4361 18.601 35.1855C17.9952 34.9349 17.4448 34.5672 16.9815 34.1034C16.5174 33.6403 16.1493 33.0903 15.898 32.4849C15.6467 31.8794 15.5173 31.2303 15.5171 30.5748C15.5169 29.9192 15.6459 29.2701 15.8968 28.6644C16.1477 28.0588 16.5155 27.5085 16.9792 27.0452L20.904 23.1204L21.9645 24.1809L18.042 28.1034C17.382 28.7709 17.0167 29.6484 17.0167 30.5732C17.0167 31.4979 17.382 32.3769 18.0442 33.0459C18.6998 33.6993 19.5878 34.0659 20.5134 34.0654C21.439 34.0648 22.3266 33.6971 22.9815 33.0429L23.979 32.0454L25.0395 33.1059L24.042 34.1034C23.5786 34.5672 23.0282 34.9349 22.4224 35.1855C21.8166 35.4361 21.1673 35.5646 20.5117 35.5637ZM19.038 23.0274L18.0405 22.0299C17.553 21.5409 17.2213 20.9185 17.0871 20.2412C16.953 19.5639 17.0223 18.862 17.2865 18.224C17.5506 17.5861 17.9977 17.0406 18.5714 16.6564C19.1451 16.2723 19.8197 16.0665 20.5102 16.0652C21.4368 16.066 22.3252 16.4348 22.98 17.0904L28.485 22.5954L29.5455 21.5342L24.0382 16.0269C23.5748 15.5633 23.0245 15.1955 22.4188 14.9447C21.8132 14.6939 21.164 14.5649 20.5085 14.5652C19.8529 14.5655 19.2038 14.695 18.5984 14.9463C17.9929 15.1976 17.443 15.5659 16.98 16.0299C16.0365 16.9727 15.5175 18.2267 15.5175 19.5602C15.5175 20.8937 16.0365 22.1469 16.98 23.0904L17.9775 24.0879L19.038 23.0274ZM35.0617 23.0837C35.5254 22.6203 35.8932 22.0701 36.1441 21.4644C36.395 20.8588 36.524 20.2096 36.5238 19.5541C36.5236 18.8985 36.3942 18.2495 36.1429 17.644C35.8916 17.0385 35.5235 16.4885 35.0595 16.0254C34.1225 15.0905 32.8529 14.5654 31.5292 14.5654C30.2055 14.5654 28.9359 15.0905 27.999 16.0254L27.0015 17.0229L28.062 18.0834L29.0595 17.0859C29.5482 16.5978 30.1707 16.2654 30.8482 16.1308C31.5258 15.9962 32.228 16.0654 32.8663 16.3297C33.5045 16.594 34.0501 17.0414 34.4342 17.6156C34.8183 18.1898 35.0236 18.8649 35.0242 19.5557C35.0234 20.4823 34.6546 21.3706 33.999 22.0254L30.0915 25.9329L31.152 26.9934L35.0617 23.0837ZM35.0542 34.1004C35.9977 33.1569 36.5167 31.9029 36.5167 30.5702C36.5167 29.2374 35.9977 27.9827 35.0542 27.0399L34.0567 26.0424L32.9962 27.1029L33.9937 28.1004C34.4811 28.5895 34.8128 29.2119 34.947 29.8892C35.0812 30.5665 35.0118 31.2684 34.7477 31.9063C34.4835 32.5442 34.0364 33.0897 33.4627 33.4739C32.889 33.8581 32.2144 34.0638 31.524 34.0652C30.5973 34.0643 29.709 33.6956 29.0542 33.0399L23.5492 27.5349L22.4887 28.5954L27.996 34.1034C28.9485 35.0454 30.201 35.5652 31.524 35.5652C32.847 35.5652 34.1002 35.0454 35.0542 34.1004ZM30.5167 28.0652C30.384 28.0652 30.2572 28.0877 30.1342 28.1207L28.0417 26.0289C28.182 25.7364 28.2667 25.4117 28.2667 25.0652C28.2667 24.4684 28.0296 23.8961 27.6077 23.4742C27.1857 23.0522 26.6134 22.8152 26.0167 22.8152C25.671 22.8152 25.3462 22.8999 25.053 23.0402L22.9612 20.9477C22.9942 20.8254 23.0175 20.6979 23.0175 20.5652C23.0175 20.2685 22.9295 19.9785 22.7647 19.7318C22.5998 19.4851 22.3656 19.2929 22.0915 19.1794C21.8174 19.0658 21.5158 19.0361 21.2248 19.094C20.9338 19.1519 20.6666 19.2947 20.4568 19.5045C20.247 19.7143 20.1042 19.9816 20.0463 20.2725C19.9884 20.5635 20.0181 20.8651 20.1316 21.1392C20.2452 21.4133 20.4374 21.6476 20.6841 21.8124C20.9308 21.9772 21.2208 22.0652 21.5175 22.0652C21.651 22.0652 21.7777 22.0419 21.9007 22.0089L23.9925 24.0999C23.8467 24.4007 23.7699 24.7302 23.7675 25.0644C23.7675 25.6612 24.0045 26.2335 24.4265 26.6554C24.8484 27.0774 25.4207 27.3144 26.0175 27.3144C26.364 27.3144 26.6887 27.2297 26.982 27.0894L29.073 29.1812C29.038 29.306 29.0193 29.4348 29.0175 29.5644C29.0175 29.8611 29.1054 30.1511 29.2702 30.3978C29.4351 30.6445 29.6693 30.8367 29.9434 30.9502C30.2175 31.0638 30.5191 31.0935 30.8101 31.0356C31.1011 30.9777 31.3683 30.8349 31.5781 30.6251C31.7879 30.4153 31.9308 30.148 31.9886 29.8571C32.0465 29.5661 32.0168 29.2645 31.9033 28.9904C31.7897 28.7163 31.5975 28.482 31.3508 28.3172C31.1041 28.1524 30.8141 28.0644 30.5175 28.0644L30.5167 28.0652Z" fill="url(#paint0_linear_311_4351)"/>
</g>
<defs>
<filter id="filter0_dii_311_4351" x="0" y="0" width="52" height="52" filterUnits="userSpaceOnUse" color-interpolation-filters="sRGB">
<feFlood flood-opacity="0" result="BackgroundImageFix"/>
<feColorMatrix in="SourceAlpha" type="matrix" values="0 0 0 0 0 0 0 0 0 0 0 0 0 0 0 0 0 0 127 0" result="hardAlpha"/>
<feOffset dy="1"/>
<feGaussianBlur stdDeviation="1"/>
<feColorMatrix type="matrix" values="0 0 0 0 0.0392157 0 0 0 0 0.0496732 0 0 0 0 0.0705882 0 0 0 0.05 0"/>
<feBlend mode="normal" in2="BackgroundImageFix" result="effect1_dropShadow_311_4351"/>
<feBlend mode="normal" in="SourceGraphic" in2="effect1_dropShadow_311_4351" result="shape"/>
<feColorMatrix in="SourceAlpha" type="matrix" values="0 0 0 0 0 0 0 0 0 0 0 0 0 0 0 0 0 0 127 0" result="hardAlpha"/>
<feOffset dy="-2"/>
<feComposite in2="hardAlpha" operator="arithmetic" k2="-1" k3="1"/>
<feColorMatrix type="matrix" values="0 0 0 0 0.0392157 0 0 0 0 0.0496732 0 0 0 0 0.0705882 0 0 0 0.05 0"/>
<feBlend mode="normal" in2="shape" result="effect2_innerShadow_311_4351"/>
<feColorMatrix in="SourceAlpha" type="matrix" values="0 0 0 0 0 0 0 0 0 0 0 0 0 0 0 0 0 0 127 0" result="hardAlpha"/>
<feMorphology radius="1" operator="erode" in="SourceAlpha" result="effect3_innerShadow_311_4351"/>
<feOffset/>
<feComposite in2="hardAlpha" operator="arithmetic" k2="-1" k3="1"/>
<feColorMatrix type="matrix" values="0 0 0 0 0.0392157 0 0 0 0 0.0496732 0 0 0 0 0.0705882 0 0 0 0.18 0"/>
<feBlend mode="normal" in2="effect2_innerShadow_311_4351" result="effect3_innerShadow_311_4351"/>
</filter>
<linearGradient id="paint0_linear_311_4351" x1="26.0205" y1="14.5652" x2="26.0205" y2="35.5652" gradientUnits="userSpaceOnUse">
<stop stop-color="#47B2B9"/>
<stop offset="1" stop-color="#70A97C"/>
</linearGradient>
</defs>
</svg>
