<svg width="52" height="52" viewBox="0 0 52 52" fill="none" xmlns="http://www.w3.org/2000/svg">
<g filter="url(#filter0_dii_311_4341)">
<path d="M2 11C2 5.47715 6.47715 1 12 1H40C45.5229 1 50 5.47715 50 11V39C50 44.5229 45.5228 49 40 49H12C6.47715 49 2 44.5228 2 39V11Z" fill="#FEFEFE"/>
<path d="M12 1.5H40C45.2467 1.5 49.5 5.75329 49.5 11V39C49.5 44.2467 45.2467 48.5 40 48.5H12C6.7533 48.5 2.5 44.2467 2.5 39V11C2.5 5.7533 6.75329 1.5 12 1.5Z" stroke="#E0E0E0"/>
<path d="M27.5 33.5V26.92C27.1648 26.9185 26.8303 26.8889 26.5 26.8315V33H24.5V26.0875C24.14 25.8725 23.805 25.6195 23.5 25.335V33.5C23.5 33.6326 23.5527 33.7598 23.6464 33.8536C23.7402 33.9473 23.8674 34 24 34H27C27.1326 34 27.2598 33.9473 27.3536 33.8536C27.4473 33.7598 27.5 33.6326 27.5 33.5ZM27.5 24.011C27.1589 24.0083 26.8207 23.9474 26.5 23.831V23H25.282C25.0241 22.7078 24.8255 22.3681 24.6975 22H27C27.1326 22 27.2598 22.0527 27.3536 22.1464C27.4473 22.2402 27.5 22.3674 27.5 22.5V24.011Z" fill="url(#paint0_linear_311_4341)"/>
<path fill-rule="evenodd" clip-rule="evenodd" d="M27.5 26C27.164 25.9992 26.829 25.9645 26.5 25.8965V25.8895C24.2445 25.418 22.55 23.418 22.55 21.0225C22.55 18.276 24.7765 16.05 27.5225 16.05C30.2685 16.05 32.495 18.2765 32.495 21.0225C32.4967 22.0499 32.1787 23.0524 31.585 23.891L31.56 23.9255L34.4295 26.7945L33.6805 27.543L30.8525 24.7155L30.8175 24.7465C29.9095 25.5527 28.7368 25.9971 27.5225 25.995H27.5V26ZM31.436 21.0225C31.436 22.0604 31.0237 23.0558 30.2898 23.7898C29.5558 24.5237 28.5604 24.936 27.5225 24.936C26.4846 24.936 25.4892 24.5237 24.7552 23.7898C24.0213 23.0558 23.609 22.0604 23.609 21.0225C23.609 19.9846 24.0213 18.9892 24.7552 18.2552C25.4892 17.5213 26.4846 17.109 27.5225 17.109C28.5604 17.109 29.5558 17.5213 30.2898 18.2552C31.0237 18.9892 31.436 19.9846 31.436 21.0225ZM18 16C17.8674 16 17.7402 16.0527 17.6464 16.1464C17.5527 16.2402 17.5 16.3674 17.5 16.5V33.5C17.5 33.6326 17.5527 33.7598 17.6464 33.8536C17.7402 33.9473 17.8674 34 18 34H21C21.1326 34 21.2598 33.9473 21.3536 33.8536C21.4473 33.7598 21.5 33.6326 21.5 33.5V16.5C21.5 16.3674 21.4473 16.2402 21.3536 16.1464C21.2598 16.0527 21.1326 16 21 16H18ZM18.5 33V17H20.5V33H18.5ZM29.5 29C29.5 28.8674 29.5527 28.7402 29.6464 28.6464C29.7402 28.5527 29.8674 28.5 30 28.5H33C33.1326 28.5 33.2598 28.5527 33.3536 28.6464C33.4473 28.7402 33.5 28.8674 33.5 29V33.5C33.5 33.6326 33.4473 33.7598 33.3536 33.8536C33.2598 33.9473 33.1326 34 33 34H30C29.8674 34 29.7402 33.9473 29.6464 33.8536C29.5527 33.7598 29.5 33.6326 29.5 33.5V29ZM30.5 29.5V33H32.5V29.5H30.5Z" fill="url(#paint1_linear_311_4341)"/>
</g>
<defs>
<filter id="filter0_dii_311_4341" x="0" y="0" width="52" height="52" filterUnits="userSpaceOnUse" color-interpolation-filters="sRGB">
<feFlood flood-opacity="0" result="BackgroundImageFix"/>
<feColorMatrix in="SourceAlpha" type="matrix" values="0 0 0 0 0 0 0 0 0 0 0 0 0 0 0 0 0 0 127 0" result="hardAlpha"/>
<feOffset dy="1"/>
<feGaussianBlur stdDeviation="1"/>
<feColorMatrix type="matrix" values="0 0 0 0 0.0392157 0 0 0 0 0.0496732 0 0 0 0 0.0705882 0 0 0 0.05 0"/>
<feBlend mode="normal" in2="BackgroundImageFix" result="effect1_dropShadow_311_4341"/>
<feBlend mode="normal" in="SourceGraphic" in2="effect1_dropShadow_311_4341" result="shape"/>
<feColorMatrix in="SourceAlpha" type="matrix" values="0 0 0 0 0 0 0 0 0 0 0 0 0 0 0 0 0 0 127 0" result="hardAlpha"/>
<feOffset dy="-2"/>
<feComposite in2="hardAlpha" operator="arithmetic" k2="-1" k3="1"/>
<feColorMatrix type="matrix" values="0 0 0 0 0.0392157 0 0 0 0 0.0496732 0 0 0 0 0.0705882 0 0 0 0.05 0"/>
<feBlend mode="normal" in2="shape" result="effect2_innerShadow_311_4341"/>
<feColorMatrix in="SourceAlpha" type="matrix" values="0 0 0 0 0 0 0 0 0 0 0 0 0 0 0 0 0 0 127 0" result="hardAlpha"/>
<feMorphology radius="1" operator="erode" in="SourceAlpha" result="effect3_innerShadow_311_4341"/>
<feOffset/>
<feComposite in2="hardAlpha" operator="arithmetic" k2="-1" k3="1"/>
<feColorMatrix type="matrix" values="0 0 0 0 0.0392157 0 0 0 0 0.0496732 0 0 0 0 0.0705882 0 0 0 0.18 0"/>
<feBlend mode="normal" in2="effect2_innerShadow_311_4341" result="effect3_innerShadow_311_4341"/>
</filter>
<linearGradient id="paint0_linear_311_4341" x1="25.5" y1="22" x2="25.5" y2="34" gradientUnits="userSpaceOnUse">
<stop stop-color="#47B2B9"/>
<stop offset="1" stop-color="#70A97C"/>
</linearGradient>
<linearGradient id="paint1_linear_311_4341" x1="25.9648" y1="16" x2="25.9648" y2="34" gradientUnits="userSpaceOnUse">
<stop stop-color="#47B2B9"/>
<stop offset="1" stop-color="#70A97C"/>
</linearGradient>
</defs>
</svg>
