<svg width="291" height="48" viewBox="0 0 291 48" fill="none" xmlns="http://www.w3.org/2000/svg">
<path d="M114.553 32.9998H110V11.5398H114.553L120.933 25.5478L127.342 11.5398H131.953V32.9998H127.4V28.5048C127.4 23.8648 127.4 22.8498 127.632 21.2548L123.079 30.9998H118.787L114.263 21.2548C114.524 22.8498 114.553 24.6478 114.553 26.9968V32.9998Z" fill="white"/>
<path d="M140.251 33.3768C137.177 33.3768 135.263 31.5788 135.263 28.7368C135.263 26.0688 137.148 24.4158 140.628 24.1548L144.688 23.8358V23.6038C144.688 22.1828 143.818 21.4288 142.223 21.4288C140.338 21.4288 139.323 22.1538 139.323 23.4588H135.611C135.611 20.1818 138.308 18.0358 142.455 18.0358C146.66 18.0358 149.038 20.3848 149.038 24.5318V32.9998H145.094L144.804 31.0858C144.34 32.4198 142.426 33.3768 140.251 33.3768ZM141.817 30.0708C143.528 30.0708 144.717 29.2298 144.717 27.5768V26.7938L142.455 26.9968C140.512 27.1708 139.816 27.6058 139.816 28.5338C139.816 29.5778 140.454 30.0708 141.817 30.0708Z" fill="white"/>
<path d="M151.516 25.4888C151.516 21.0808 154.387 18.0068 158.476 18.0068C160.448 18.0068 162.014 18.7608 162.797 19.9498L163.029 18.4998H167.234V32.0718C167.234 37.2628 164.247 40.3948 159.288 40.3948C154.851 40.3948 151.864 37.8718 151.458 33.7538H155.982C156.069 35.3778 157.287 36.3348 159.259 36.3348C161.405 36.3348 162.768 35.0588 162.768 32.9998V31.1148C161.898 32.1588 160.274 32.8258 158.389 32.8258C154.329 32.8258 151.516 29.8388 151.516 25.4888ZM156.011 25.3728C156.011 27.4608 157.403 28.9398 159.375 28.9398C161.405 28.9398 162.768 27.5188 162.768 25.3728C162.768 23.2558 161.405 21.8928 159.346 21.8928C157.374 21.8928 156.011 23.3138 156.011 25.3728Z" fill="white"/>
<path d="M175.059 32.9998H170.593V18.4998H174.798L175.088 20.0078C175.987 18.7608 177.64 18.0358 179.525 18.0358C182.976 18.0358 184.977 20.2398 184.977 24.0388V32.9998H180.511V25.1118C180.511 23.2848 179.496 22.0958 177.959 22.0958C176.19 22.0958 175.059 23.2558 175.059 25.0538V32.9998Z" fill="white"/>
<path d="M187.396 25.7208C187.396 21.1388 190.76 18.0648 195.4 18.0648C200.011 18.0648 203.375 21.1388 203.375 25.7208C203.375 30.3028 200.011 33.3478 195.4 33.3478C190.76 33.3478 187.396 30.3028 187.396 25.7208ZM191.891 25.6918C191.891 27.8958 193.312 29.3458 195.4 29.3458C197.459 29.3458 198.88 27.8958 198.88 25.6918C198.88 23.5168 197.459 22.0668 195.4 22.0668C193.312 22.0668 191.891 23.5168 191.891 25.6918Z" fill="white"/>
<path d="M210.431 32.9998H205.965V11.1338H210.431V32.9998Z" fill="white"/>
<path d="M215.985 16.2378C214.564 16.2378 213.433 15.1068 213.433 13.6858C213.433 12.2648 214.564 11.1628 215.985 11.1628C217.377 11.1628 218.508 12.2648 218.508 13.6858C218.508 15.1068 217.377 16.2378 215.985 16.2378ZM213.781 32.9998V18.4998H218.247V32.9998H213.781Z" fill="white"/>
<path d="M225.976 33.3768C222.902 33.3768 220.988 31.5788 220.988 28.7368C220.988 26.0688 222.873 24.4158 226.353 24.1548L230.413 23.8358V23.6038C230.413 22.1828 229.543 21.4288 227.948 21.4288C226.063 21.4288 225.048 22.1538 225.048 23.4588H221.336C221.336 20.1818 224.033 18.0358 228.18 18.0358C232.385 18.0358 234.763 20.3848 234.763 24.5318V32.9998H230.819L230.529 31.0858C230.065 32.4198 228.151 33.3768 225.976 33.3768ZM227.542 30.0708C229.253 30.0708 230.442 29.2298 230.442 27.5768V26.7938L228.18 26.9968C226.237 27.1708 225.541 27.6058 225.541 28.5338C225.541 29.5778 226.179 30.0708 227.542 30.0708Z" fill="white"/>
<path fill-rule="evenodd" clip-rule="evenodd" d="M259.175 28.4933L263.743 33.0621C266.524 35.8425 271.032 35.8425 273.812 33.0621C274.729 32.1452 275.343 31.0403 275.656 29.8715L278.846 33.0621C281.627 35.8425 286.134 35.8425 288.915 33.0621C291.695 30.2818 291.695 25.774 288.915 22.9936L278.846 12.9251C276.066 10.1448 271.558 10.1448 268.778 12.9251C267.861 13.8421 267.246 14.9469 266.934 16.1157L263.743 12.9251C260.963 10.1448 256.455 10.1448 253.675 12.9251L245.389 21.2107C242.204 24.3965 242.204 29.5617 245.389 32.7475C248.575 35.9333 253.74 35.9333 256.926 32.7475C258.132 31.5415 258.882 30.0519 259.175 28.4933ZM261.226 15.4422C259.836 14.0521 257.582 14.0521 256.192 15.4422C254.802 16.8318 254.802 19.0844 256.19 20.4747L266.261 30.545C267.651 31.9352 269.905 31.9352 271.295 30.545C272.684 29.1556 272.685 26.9033 271.297 25.513L261.226 15.4422ZM254.409 23.7278L251.158 20.4765L247.906 23.7278C246.111 25.5234 246.111 28.4347 247.906 30.2304C249.702 32.026 252.613 32.026 254.409 30.2304C256.205 28.4347 256.205 25.5234 254.409 23.7278ZM271.292 20.4735C269.905 19.0831 269.906 16.8314 271.295 15.4422C272.685 14.0521 274.939 14.0521 276.329 15.4422L286.398 25.5108C287.788 26.9009 287.788 29.1548 286.398 30.545C285.007 31.9352 282.754 31.9352 281.363 30.545L271.292 20.4735Z" fill="white"/>
</svg>
